<svg width="28" height="28" viewBox="0 0 28 28" fill="none" xmlns="http://www.w3.org/2000/svg">
<path d="M23.6449 13.6888C22.2449 12.211 20.3782 11.1999 18.4338 10.811C17.5782 10.5777 16.7227 10.4221 15.8671 10.3444C18.0449 7.7777 17.656 3.88881 15.0893 1.71103C12.5227 -0.466749 8.63377 -0.0778601 6.45599 2.48881C4.27821 5.05547 4.6671 8.94436 7.23377 11.1221C7.70043 11.511 8.1671 11.8221 8.63377 11.9777V13.6888L7.38932 12.5221C6.30043 11.4333 4.51154 11.4333 3.34488 12.5221C2.25599 13.611 2.17821 15.3221 3.2671 16.411L6.84488 20.611C7.00043 21.6999 7.38932 22.711 7.93377 23.6444C8.32266 24.3444 8.8671 25.0444 9.41154 25.5888V27.0666C9.41154 27.5333 9.72266 27.8444 10.1893 27.8444H20.7671C21.156 27.8444 21.5449 27.4555 21.5449 27.0666V25.0444C23.0227 23.2555 23.8004 20.9999 23.8004 18.7444V14.2333C23.8782 13.9221 23.8004 13.7666 23.6449 13.6888ZM6.53377 6.3777C6.53377 3.81103 8.63377 1.78881 11.2004 1.86658C13.7671 1.86658 15.7893 3.96658 15.7115 6.53325C15.7115 7.93325 15.0893 9.1777 14.0004 10.0333V6.14436C13.9607 5.47032 13.6647 4.837 13.173 4.37423C12.6813 3.91146 12.0312 3.6543 11.356 3.65547C9.95599 3.5777 8.71154 4.74436 8.71154 6.14436V10.1888C7.38932 9.41103 6.61154 7.93325 6.53377 6.3777ZM22.3227 18.6666C22.4004 20.6888 21.7004 22.6333 20.3782 24.1888C20.2227 24.3444 20.0671 24.4999 20.0671 24.7333V26.3666H11.0449V25.2777C11.0449 25.0444 10.8893 24.811 10.7338 24.6555C10.1893 24.1888 9.72266 23.6444 9.33377 22.9444C8.8671 22.1666 8.55599 21.2333 8.40043 20.2999C8.40043 20.1444 8.32266 19.9888 8.24488 19.8333L4.51154 15.3999C4.27821 15.1666 4.12266 14.8555 4.12266 14.4666C4.12266 14.1555 4.27821 13.7666 4.51154 13.5333C5.05599 13.0666 5.83377 13.0666 6.37821 13.5333L8.63377 15.7888V18.1221L10.1115 17.3444V6.14436C10.1893 5.59992 10.656 5.13325 11.2782 5.21103C11.8227 5.21103 12.3671 5.59992 12.3671 6.14436V15.0888L13.9227 15.3999V11.8221C14.0004 11.7444 14.0782 11.7444 14.156 11.6666C14.7004 11.6666 15.2449 11.7444 15.7893 11.8221V15.7888L17.0338 16.0221V11.9777L17.9671 12.211C18.356 12.2888 18.7449 12.4444 19.1338 12.5999V16.4888L20.3782 16.7221V13.1444C21.0782 13.4555 21.7004 13.9221 22.2449 14.4666L22.3227 18.6666Z" fill="#FEFCFB"/>
</svg>
