<svg width="410" height="398" viewBox="0 0 410 398" fill="none" xmlns="http://www.w3.org/2000/svg">
<path fill-rule="evenodd" clip-rule="evenodd" d="M154.777 0.477347C150.647 1.21824 141.545 5.78297 140.541 7.61576C140.075 8.46836 139.194 9.41789 138.585 9.72618C135.319 11.3766 134.715 14.7 136.902 18.969C138.088 21.282 138.105 21.4983 137.203 22.8383C136.677 23.6186 135.825 25.108 135.31 26.1485C134.139 28.5135 129.945 33.6948 127.243 36.1152C126.118 37.1228 123.832 38.6122 122.163 39.4254L119.129 40.9039L117.564 39.4873C116.569 38.5876 115.934 37.3703 115.823 36.1513C115.699 34.7884 115.293 34.1094 114.425 33.8087C113.412 33.4572 112.841 33.8323 111.092 35.9991C109.931 37.4371 108.981 39.0235 108.981 39.524C108.981 40.025 108.33 40.715 107.534 41.0572C106.374 41.5566 105.886 41.5134 105.071 40.8376C103.416 39.467 100.452 38.2207 98.8472 38.2207C96.7557 38.2207 93.8497 39.4561 89.3565 42.2554C82.1458 46.7478 82.5788 46.6689 77.1002 44.4862C72.0737 42.4837 64.4897 40.4111 62.1889 40.4111C59.7188 40.4111 56.7792 41.9865 53.5997 45.0141C51.8739 46.6575 48.3285 49.1895 45.7217 50.6406C43.1148 52.0923 40.6958 53.7723 40.3463 54.3747C39.9973 54.977 39.0959 56.289 38.3434 57.2906C37.591 58.2916 36.2861 61.1254 35.4433 63.5879L33.9117 68.0645H29.7756C25.1364 68.0645 24.6419 68.3306 20.7847 72.9052C18.5517 75.5533 18.55 75.5588 18.55 80.6657V85.7758L15.9031 87.913C14.2307 89.2634 13.0662 90.7408 12.7386 91.9258C12.454 92.9575 11.8192 95.1489 11.3277 96.7955C9.78686 101.96 10.4947 115.617 12.4986 119.377C13.0273 120.369 14.8301 122.906 16.5054 125.014C19.5424 128.837 19.5494 128.855 19.1413 131.859C18.9164 133.515 17.9089 136.472 16.9025 138.43C15.8962 140.388 15.073 142.236 15.073 142.537C15.073 142.838 15.855 144.647 16.8115 146.556C17.8706 148.672 18.5517 150.918 18.5541 152.306C18.5558 153.625 19.0242 155.253 19.6671 156.173C20.7708 157.755 20.7691 157.778 19.3656 160.775C18.59 162.432 18.0892 163.914 18.2532 164.069C18.4167 164.224 19.79 164.121 21.3041 163.842C24.0333 163.338 24.086 163.356 27.4413 165.957C29.3026 167.4 32.3025 169.295 34.1077 170.169C35.9128 171.042 38.2744 172.342 39.3561 173.058L41.3224 174.358L41.2053 179.377C41.0796 184.8 41.9131 187.491 44.8458 191.127C46.2683 192.89 46.2985 193.15 46.9738 209.372C47.5779 223.868 47.5483 226.574 46.7286 232.097C46.2167 235.544 45.6498 239.475 45.469 240.83C45.2881 242.185 44.3872 246.374 43.4679 250.139C42.5479 253.904 41.4946 260.175 41.1271 264.075C40.5387 270.322 40.2309 271.594 38.5411 274.753C37.4855 276.726 36.2368 279.587 35.7656 281.111C35.2949 282.635 34.1187 285.361 33.1529 287.168C32.1872 288.976 31.2075 291.425 30.9762 292.611C30.7455 293.797 30.36 294.891 30.1206 295.041C29.8811 295.192 26.919 300.572 23.5376 306.996C16.7373 319.918 16.4388 321.064 18.8555 324.96L20.3204 327.321L18.8555 327.669C16.9217 328.127 17.008 328.962 19.2091 331.089C20.9105 332.733 21.0044 333.03 20.6693 335.702C20.3662 338.121 19.9853 338.816 18.1807 340.247C16.171 341.841 16.0718 342.069 16.4411 344.25C16.8225 346.503 16.7802 346.583 14.7931 347.368C12.654 348.212 12.4012 348.704 13.2969 350.284C13.7137 351.02 13.338 351.874 11.6853 353.945C9.65991 356.484 0 373.879 0 374.988C0 376.573 4.18823 379.752 9.18398 381.961C17.4416 385.611 29.4162 390.047 33.6219 391.014C43.6371 393.315 56.7572 393.584 64.0555 391.637C68.4147 390.475 68.9254 390.508 77.3825 392.511C82.5481 393.735 85.6598 394.155 89.5507 394.152C92.4265 394.151 99.3845 394.436 105.014 394.787C115.854 395.462 125.809 394.973 135.002 393.311C140.508 392.316 141.047 391.568 139.66 386.852C138.89 384.233 137.597 383.649 124.905 380.184C114.066 377.226 110.233 375.291 102.624 368.942L100.615 367.266L101.648 364.519C102.404 362.508 102.512 361.581 102.051 361.055C101.598 360.54 101.597 359.899 102.048 358.778C102.394 357.919 102.613 355.92 102.535 354.335C102.424 352.082 102.651 351.182 103.572 350.216C104.22 349.536 104.912 348.548 105.109 348.021C105.377 347.304 106.112 347.063 108.029 347.063C110.498 347.063 110.637 346.972 111.816 344.605C113.15 341.922 113.374 339.932 112.44 339.05C111.553 338.211 112.24 337.083 114.469 335.715C115.56 335.046 117.535 332.992 118.859 331.151C120.973 328.21 121.403 327.062 122.406 321.69C123.407 316.33 123.853 315.137 126.024 312.017C129.669 306.779 129.72 306.656 131.296 299.327C132.981 291.496 133.173 283.972 132.067 269.027L131.377 259.714L133.209 249.314C137.086 227.302 137.283 222.828 134.616 217.283C133.907 215.81 133.639 212.913 133.456 204.746C133.25 195.546 134.099 176.398 134.74 175.793C135.392 175.176 138.57 177.502 138.881 178.825C139.075 179.648 139.61 181.117 140.07 182.089C141.958 186.079 143.638 190.883 144.025 193.397C144.427 196.014 144.408 196.061 143.049 195.739C141.011 195.256 137.399 196.34 137.319 197.459C137.2 199.129 137.475 200.571 138.015 201.102C138.307 201.388 138.555 202.374 138.566 203.292C138.591 205.36 140.061 208.111 140.481 206.879C140.636 206.427 141.057 205.195 141.418 204.141C142.022 202.377 141.953 202.127 140.56 200.986C138.502 199.304 138.783 197.364 141.121 197.113C142.632 196.95 142.738 197.03 142.053 197.81C141.627 198.295 141.431 198.836 141.618 199.012C141.804 199.188 144.016 199.16 146.532 198.95C152.874 198.419 154.393 197.366 150.024 196.529C148.436 196.225 148.081 195.886 147.935 194.539C147.838 193.646 146.73 189.798 145.471 185.987C144.212 182.176 143.183 178.679 143.183 178.215C143.183 177.616 143.891 177.323 145.627 177.203C147.658 177.064 148.293 176.725 149.374 175.205C151.304 172.491 153.159 167.564 153.479 164.304C153.67 162.358 154.018 161.429 154.559 161.429C155.058 161.429 155.356 162.042 155.356 163.072C155.356 164.578 155.522 164.715 157.343 164.715C159.143 164.715 160.471 165.76 171.421 175.803C186.938 190.036 193.219 195.38 194.43 195.38C195.821 195.38 199.29 193.606 202.272 191.369L204.842 189.442L206.897 191.042C208.027 191.922 209.198 192.642 209.498 192.642C209.799 192.642 210.525 193.051 211.11 193.552C212.12 194.415 212.123 194.517 211.175 195.506C210.267 196.454 210.256 196.685 211.055 198.018C211.67 199.044 212.321 199.435 213.215 199.315C214.154 199.188 214.764 199.607 215.505 200.884C216.059 201.841 217.296 203.551 218.252 204.684C219.209 205.817 220.252 207.154 220.571 207.656C221.317 208.831 225.138 210.103 228.107 210.165C229.382 210.191 231.6 210.465 233.034 210.773C237.412 211.713 245.24 211.82 246.994 210.963C249.758 209.613 249.664 208.416 246.657 206.658C243.59 204.866 241.727 202.878 241.121 200.754C240.796 199.615 240.018 198.425 239.391 198.108C237.971 197.389 237.863 196.213 239.266 196.737C242.185 197.828 249 199.159 250.204 198.874C251.584 198.546 251.94 197.439 251.227 195.685C250.042 192.768 227.77 183.12 223.025 183.469C221.274 183.597 221.117 183.462 220.633 181.416C220.248 179.786 219.542 178.84 217.872 177.72C216.638 176.892 215.402 176.214 215.125 176.214C214.241 176.214 200.608 162.341 186.875 147.465C182.662 142.902 177.807 136.529 170.601 126.105C165.074 118.108 161.944 112.201 162.503 110.823C163.133 109.274 167.226 108.61 172.363 109.224C176.189 109.682 178.285 110.344 183.318 112.684C188.473 115.081 189.692 115.46 190.419 114.89C191.586 113.975 191.53 112.707 190.282 111.813C189.341 111.138 189.36 111.084 190.548 111.068C192.172 111.046 194.227 107.807 195.943 102.563C196.633 100.455 197.566 97.9531 198.015 97.0042C199.435 94.0083 198.776 89.161 196.632 86.8195C195.524 85.6093 192.556 85.5825 190.766 86.7669C189.471 87.6234 189.253 87.6015 186.724 86.3606C185.254 85.6394 183.529 84.6483 182.891 84.1582C181.4 83.0121 178.719 82.4119 178.255 83.1211C177.663 84.0262 175.7 83.7442 174.669 82.6063C173.714 81.5522 173.688 81.5528 172.101 82.6206C170.215 83.8888 169.489 85.6132 170.402 86.653C170.905 87.2247 170.704 87.6502 169.518 88.5313L167.985 89.6708L166.983 88.5012C166.264 87.6622 165.422 87.3649 164.002 87.4476C162.913 87.5106 161.631 87.5352 161.153 87.5018C160.675 87.4679 159.433 87.3901 158.392 87.3282C156.678 87.2269 156.118 86.6777 152.418 81.4734C148.749 76.3139 145.502 71.0549 145.502 70.2729C145.502 70.1125 145.995 69.981 146.598 69.981C147.286 69.981 147.831 69.4674 148.061 68.6006C148.373 67.4293 147.926 66.7787 145.111 64.3036L141.794 61.3871L143.314 60.4464C144.675 59.6036 145.004 59.5888 146.473 60.3067C147.375 60.747 148.609 61.6253 149.216 62.2589C149.823 62.8919 150.803 63.4099 151.396 63.4099C151.989 63.4099 152.957 63.6952 153.548 64.0441C155.071 64.9421 156.244 64.3419 157.947 61.7934C158.905 60.3615 159.856 59.5768 160.635 59.5768C161.354 59.5768 161.964 59.1343 162.144 58.4816C162.311 57.8793 162.723 57.3864 163.059 57.3864C163.395 57.3864 164.168 56.9609 164.776 56.4407C165.828 55.5416 165.998 55.558 168.229 56.7709C170.949 58.25 171.095 58.1377 172.134 53.7515C172.706 51.3388 173.138 50.6478 174.343 50.2152C175.166 49.9189 176.171 49.2558 176.574 48.7405C177.243 47.8857 177.503 47.9837 179.544 49.857C182.126 52.227 182.942 52.3957 183.512 50.6784C184.243 48.4738 185.763 47.0446 186.795 47.5905C187.929 48.1896 193.409 47.1793 194.045 46.2533C194.287 45.9012 194.753 44.7557 195.08 43.7076C195.488 42.4016 196.035 41.785 196.819 41.7477C197.449 41.7182 199.007 41.6475 200.282 41.5917C204.293 41.4148 204.542 40.9822 202.99 36.8884C201.559 33.1117 201.666 32.1972 203.543 32.1972C204.482 32.1972 204.631 31.959 204.31 30.9651C202.954 26.7733 201.776 25.3238 200.861 26.7229C200.622 27.0881 200.125 27.0816 199.377 26.7037C198.279 26.1485 197.705 26.3007 195.378 27.7644C194.65 28.2222 194.681 28.4527 195.591 29.4034C196.174 30.0123 196.77 31.5674 196.916 32.8592C197.142 34.8574 196.937 35.469 195.544 36.947C194.643 37.9031 193.333 38.8395 192.634 39.0278C191.444 39.3482 191.396 39.2562 191.892 37.6222C192.433 35.8403 192.17 34.6997 191.331 35.1892C191.074 35.3393 190.988 33.3104 191.14 30.6809C191.373 26.6594 191.213 25.3912 190.135 22.6992C188.551 18.7434 182.886 10.6565 179.181 7.06379C173.382 1.44001 163.81 -1.14353 154.777 0.477347ZM178.555 91.0765C178.959 91.5354 179.169 92.0238 179.024 92.1618C178.339 92.8085 165.187 98.4558 164.365 98.4558C163.621 98.4558 163.554 98.2401 164.031 97.3968C164.361 96.8142 164.631 95.8865 164.631 95.3357C164.631 94.5811 165.371 94.1682 167.633 93.6606C169.284 93.2904 171.175 92.5172 171.836 91.9428C173.83 90.2091 177.39 89.7502 178.555 91.0765ZM189.921 113.629C189.474 114.05 184.341 112.662 184.341 112.12C184.341 111.192 185.892 111.251 188.02 112.26C189.247 112.842 190.102 113.457 189.921 113.629ZM375.927 174.778C374.652 175.194 372.714 175.906 371.619 176.36C369.742 177.138 369.568 177.119 368.532 176.015C367.478 174.892 367.445 174.889 367.702 175.94C367.849 176.543 368.158 177.467 368.388 177.994C368.676 178.656 368.536 178.952 367.935 178.952C367.418 178.952 367.067 179.451 367.07 180.184C367.073 180.862 366.665 182.402 366.164 183.606C365.664 184.811 365.243 186.622 365.229 187.631C365.21 188.957 364.705 189.904 363.403 191.053C362.413 191.927 361.396 192.642 361.145 192.642C360.411 192.642 359.877 196.834 359.783 203.32L359.696 209.343L363.993 211.337C370.46 214.336 372.275 217.093 367.978 217.389C365.776 217.541 365.499 217.722 365.178 219.219C364.908 220.477 356.577 236.301 355.561 237.486C355.459 237.603 354.968 237.38 354.469 236.989C353.97 236.598 352.594 236.208 351.412 236.122C350.229 236.036 349.092 235.951 348.884 235.934C348.677 235.916 347.968 235.039 347.31 233.985C346.458 232.622 345.701 232.068 344.689 232.068C342.741 232.068 338.529 228.921 336.976 226.306C335.807 224.336 335.775 224.072 336.612 223.198C337.801 221.958 339.463 211.167 338.896 208.365C338.397 205.893 332.507 199.692 328.15 197.051C324.325 194.732 313.326 190.871 310.052 190.697C308.572 190.618 306.877 190.319 306.284 190.031C305.691 189.743 304.423 189.334 303.466 189.122C301.888 188.772 301.81 188.816 302.625 189.6C303.572 190.513 303.499 194.285 302.534 194.285C302.25 194.285 302.017 194.654 302.017 195.106C302.017 195.558 301.626 195.927 301.148 195.927C300.669 195.927 300.278 196.174 300.278 196.475C300.278 196.776 300.8 197.022 301.438 197.022C302.96 197.022 302.91 197.226 300.369 201.403C298.678 204.181 297.601 205.272 295.458 206.373C291.666 208.32 291.265 208.772 291.981 210.284C292.421 211.211 292.36 211.842 291.747 212.729C291.127 213.626 291.076 214.198 291.542 215.02C292.392 216.521 292.32 217.283 291.329 217.283C290.814 217.283 290.428 217.961 290.315 219.063L290.134 220.843L286.242 221.004C282.691 221.152 282.244 221.306 281.142 222.768C280.478 223.649 279.744 225.422 279.512 226.709C279.012 229.474 277.816 229.949 275.564 228.275C274.723 227.651 273.353 227.138 272.52 227.136C271.253 227.132 270.689 226.568 269.089 223.713L267.174 220.295L268.126 216.807C269.447 211.965 268.986 210.355 265.518 207.701C263.944 206.496 262.643 205.217 262.627 204.858C262.586 203.928 261.565 203.453 260.714 203.968C259.688 204.591 255.032 205.731 253.401 205.76C252.249 205.78 252.074 206.007 252.31 207.173C252.5 208.115 252.251 208.786 251.533 209.261C250.729 209.793 250.513 210.545 250.633 212.39C250.823 215.303 251.469 216.527 255.118 220.887C257.426 223.645 258.004 224.805 258.489 227.647C259.015 230.736 258.957 231.226 257.903 232.573C257.259 233.396 256.429 235.741 256.058 237.784C255.396 241.433 255.41 241.518 256.818 242.54C257.606 243.113 261.459 246.351 265.38 249.735L272.511 255.889L272.167 259.996C271.94 262.72 270.952 266.545 269.232 271.36C267.807 275.352 266.336 280.526 265.964 282.86C265.353 286.696 264.944 287.573 261.699 292.03C259.726 294.74 257.665 297.785 257.12 298.796L256.129 300.633L258.098 302.355C259.408 303.5 260.325 304.995 260.835 306.815C261.256 308.321 261.991 309.85 262.467 310.214C263.232 310.798 263.219 311.304 262.36 314.594C261.826 316.64 261.262 318.717 261.106 319.21C260.888 319.902 262.491 320.867 268.155 323.454C272.188 325.295 275.7 326.802 275.959 326.802C276.218 326.802 276.514 326.296 276.615 325.678C276.782 324.665 276.912 324.631 277.928 325.338C278.931 326.035 278.982 326.356 278.391 328.241C277.495 331.104 276.511 338.864 276.511 343.076C276.511 345.099 276.991 347.821 277.679 349.699C278.321 351.453 278.803 353.986 278.749 355.33C278.631 358.279 279.477 359.927 281.656 360.991C283.21 361.75 283.307 362.022 283.654 366.649C283.855 369.322 284.32 372.738 284.687 374.239C285.245 376.522 285.191 377.5 284.356 380.211C282.806 385.246 281.848 386.148 275.631 388.424C270.456 390.318 270.134 390.528 270.134 392.011C270.134 393.197 270.457 393.656 271.439 393.867C279.702 395.642 285.688 396.072 294.693 395.541C301.196 395.157 301.536 395.077 302.046 393.812C302.646 392.32 302.759 392.269 307.379 391.411C311.427 390.66 311.798 389.862 310.426 384.857C309.663 382.079 309.613 381.103 310.166 379.842C310.7 378.625 310.694 377.912 310.139 376.647C309.496 375.18 309.6 374.726 311.192 372.061C312.881 369.234 312.992 368.65 313.706 358.768C314.546 347.157 314.697 335.332 314.049 331.927C313.618 329.664 313.621 329.66 315.664 329.298C317.677 328.941 317.702 328.902 317.261 326.91C316.514 323.546 316.837 321.269 318.732 316.531C319.727 314.045 320.516 311.088 320.487 309.96C320.457 308.833 320.871 306.555 321.407 304.898C322.815 300.541 322.923 289.903 321.582 287.561C321.037 286.61 320.314 285.744 319.975 285.637C318.395 285.14 319.768 252.961 321.758 243.842C322.812 239.013 322.811 238.884 321.729 237.467C320.643 236.043 320.643 236.006 321.76 235.052C324.517 232.694 325.173 232.716 329.31 235.299L333.18 237.716L331.529 241.498L329.878 245.28L332.033 246.067C333.219 246.5 335.103 247.359 336.219 247.976C337.335 248.594 340.266 250.011 342.733 251.125C345.199 252.239 347.221 253.302 347.225 253.487C347.229 253.673 344.586 258.971 341.35 265.261C335.905 275.848 322.607 307.833 323.24 308.822C323.368 309.022 325.363 309.853 327.672 310.669C331.391 311.982 339.501 315.88 342.084 317.595C342.824 318.086 343.394 317.968 344.783 317.034C345.751 316.383 346.839 315.85 347.2 315.85C348.024 315.85 352.277 317.878 352.64 318.443C353.217 319.344 351.724 325.562 349.248 332.559C347.602 337.215 346.653 340.867 346.653 342.548C346.653 344.219 348.599 351.762 351.92 362.961C354.817 372.73 357.292 380.882 357.419 381.076C357.545 381.27 358.793 381.306 360.191 381.158C363.102 380.848 364.084 381.649 362.64 383.156C362.124 383.694 359.947 385.263 357.801 386.642C354.606 388.695 353.162 389.252 349.828 389.721C347.589 390.036 344.784 390.145 343.596 389.963C340.974 389.561 340.904 390.012 343.137 392.924C345.79 396.384 347.108 396.62 363.754 396.62C371.725 396.62 380.26 396.414 382.721 396.164L387.197 395.708L387.585 393.754C387.895 392.193 387.606 391.097 386.153 388.312C384.524 385.193 384.333 384.312 384.333 379.94C384.333 377.169 384.592 374.903 384.932 374.705C385.262 374.512 387.479 374.216 389.859 374.046L394.188 373.737L394.194 369.846C394.197 367.706 394.585 364.755 395.056 363.29C395.527 361.824 395.812 360.469 395.691 360.278C395.569 360.087 395.176 355.865 394.817 350.896C394.458 345.926 394.018 340.78 393.839 339.459L393.513 337.058L396.314 337.385C397.855 337.565 400.335 337.875 401.827 338.073L404.539 338.435L405.109 336.315C405.722 334.04 406.675 323.282 407.288 311.743C407.581 306.237 407.434 303.198 406.64 298.327C406.076 294.864 405.673 291.537 405.744 290.935C405.814 290.332 405.918 283.802 405.974 276.423C406.07 263.632 406.137 262.88 407.424 260.269C410.115 254.809 409.913 253.979 403.608 244.524C401.365 241.162 399.567 237.426 397.583 232.006C396.027 227.757 394.194 223.537 393.509 222.628C392.308 221.035 392.299 220.917 393.261 219.267C393.808 218.327 396.055 216.079 398.252 214.272C402.535 210.749 404.824 207.38 406.891 201.558C408.522 196.963 408.432 193.167 406.595 189.082C405.782 187.275 404.79 184.549 404.391 183.024C403.531 179.739 403.003 178.817 402.238 179.263C401.928 179.445 400.772 178.944 399.67 178.15C398.066 176.994 397.666 176.883 397.666 177.592C397.666 178.351 397.42 178.313 395.965 177.335C393.091 175.402 389.501 174.496 383.753 174.254C379.993 174.095 377.51 174.262 375.927 174.778ZM82.6733 290.526C83.4698 293.116 83.5463 294.788 83.1394 300.765C82.8721 304.695 82.6391 310.497 82.6217 313.66C82.5852 320.218 81.5812 322.969 79.223 322.969C76.7188 322.969 75.9692 324.085 75.3646 328.718C74.4562 335.682 74.4012 342.21 75.2353 344.075C75.6782 345.065 76.6788 345.991 77.699 346.355C79.7331 347.08 79.8386 348.049 78.2451 351.366C77.6144 352.679 77.0984 354.199 77.0984 354.743C77.0984 355.288 76.5767 356.883 75.9391 358.288C75.3014 359.694 74.7797 361.668 74.7797 362.676C74.7797 364.145 74.527 364.544 73.5084 364.684C71.8917 364.907 69.8651 369.477 68.8883 375.105C68.3168 378.397 67.8832 379.374 66.4171 380.675L64.6386 382.253L59.0516 380.523C54.1538 379.007 52.9991 378.391 49.6995 375.534C47.6149 373.73 45.4046 371.21 44.7461 369.887C44.0928 368.574 42.8441 366.698 41.9717 365.718C40.1735 363.7 40.0292 362.916 39.8425 354.181C39.7544 350.02 39.9532 347.42 40.4297 346.515C40.8262 345.762 41.152 344.26 41.1543 343.178C41.159 340.411 42.5827 339.351 46.0539 339.528C48.4932 339.654 48.965 339.488 50.0572 338.128C51.3742 336.489 51.6699 333.041 50.7766 329.732C50.3227 328.049 50.4189 327.939 54.7903 325.152C62.9633 319.943 65.143 317.588 67.962 310.922C72.203 300.894 80.1969 286.541 81.2119 287.134C81.4919 287.297 82.1493 288.824 82.6733 290.526Z" fill="#7B7B7B"/>
<rect x="162.949" y="380.916" width="38.309" height="17.1168" transform="rotate(-15 162.949 380.916)" fill="#043F62" fill-opacity="0.6"/>
<rect x="204" y="380" width="39" height="17" fill="#F9CD7F"/>
</svg>
